<?xml version="1.0" encoding="UTF-8" standalone="no"?>
<!-- Created with Inkscape (http://www.inkscape.org/) -->

<svg
   xmlns:osb="http://www.openswatchbook.org/uri/2009/osb"
   xmlns:dc="http://purl.org/dc/elements/1.1/"
   xmlns:cc="http://creativecommons.org/ns#"
   xmlns:rdf="http://www.w3.org/1999/02/22-rdf-syntax-ns#"
   xmlns:svg="http://www.w3.org/2000/svg"
   xmlns="http://www.w3.org/2000/svg"
   xmlns:sodipodi="http://sodipodi.sourceforge.net/DTD/sodipodi-0.dtd"
   xmlns:inkscape="http://www.inkscape.org/namespaces/inkscape"
   width="16px"
   height="16px"
   id="svg2160"
   sodipodi:version="0.32"
   inkscape:version="0.48.2 r9819"
   sodipodi:docname="par_proj.svg"
   inkscape:output_extension="org.inkscape.output.svg.inkscape"
   inkscape:export-filename="/Users/GenX/Documents/GenX/sf-code/trunk/icons/main_gui/par_proj.png"
   inkscape:export-xdpi="112.5"
   inkscape:export-ydpi="112.5"
   version="1.1">
  <defs
     id="defs2162">
    <linearGradient
       id="linearGradient5236"
       osb:paint="gradient">
      <stop
         style="stop-color:#000000;stop-opacity:1;"
         offset="0"
         id="stop5238" />
      <stop
         style="stop-color:#000000;stop-opacity:0;"
         offset="1"
         id="stop5240" />
    </linearGradient>
    <linearGradient
       id="linearGradient3796"
       osb:paint="solid">
      <stop
         style="stop-color:#990000;stop-opacity:1;"
         offset="0"
         id="stop3798" />
    </linearGradient>
    <linearGradient
       id="linearGradient3413">
      <stop
         style="stop-color:#d3d7cf;stop-opacity:1;"
         offset="0"
         id="stop3415" />
      <stop
         style="stop-color:#d3d7cf;stop-opacity:0;"
         offset="1"
         id="stop3417" />
    </linearGradient>
  </defs>
  <sodipodi:namedview
     id="base"
     pagecolor="#ffffff"
     bordercolor="#666666"
     borderopacity="1.0"
     inkscape:pageopacity="0.0"
     inkscape:pageshadow="2"
     inkscape:zoom="22.197802"
     inkscape:cx="0.17428805"
     inkscape:cy="6.7463445"
     inkscape:current-layer="layer1"
     showgrid="true"
     inkscape:grid-bbox="true"
     inkscape:document-units="px"
     inkscape:window-width="1440"
     inkscape:window-height="852"
     inkscape:window-x="0"
     inkscape:window-y="0"
     inkscape:window-maximized="1"
     inkscape:snap-grids="true">
    <inkscape:grid
       type="xygrid"
       id="grid5322" />
  </sodipodi:namedview>
  <metadata
     id="metadata2165">
    <rdf:RDF>
      <cc:Work
         rdf:about="">
        <dc:format>image/svg+xml</dc:format>
        <dc:type
           rdf:resource="http://purl.org/dc/dcmitype/StillImage" />
        <dc:title></dc:title>
      </cc:Work>
    </rdf:RDF>
  </metadata>
  <g
     inkscape:groupmode="layer"
     id="layer2"
     inkscape:label="Layer2" />
  <g
     id="layer1"
     inkscape:label="Layer 1"
     inkscape:groupmode="layer">
    <path
       sodipodi:type="arc"
       style="fill:#204a87;fill-opacity:1;stroke:#000000;stroke-width:0.30000000999999998;stroke-linecap:round;stroke-linejoin:round;stroke-miterlimit:4;stroke-opacity:1;stroke-dasharray:none"
       id="path3401"
       sodipodi:cx="8.739604"
       sodipodi:cy="5.6836634"
       sodipodi:rx="1.3514851"
       sodipodi:ry="1.3514851"
       d="m 10.091089,5.6836634 a 1.3514851,1.3514851 0 1 1 -2.7029701,0 1.3514851,1.3514851 0 1 1 2.7029701,0 z"
       transform="matrix(0.83926562,0,0,0.83926562,4.5295978,4.9152964)" />
    <path
       sodipodi:type="arc"
       style="fill:#204a87;fill-opacity:1;stroke:#000000;stroke-width:0.30000001;stroke-linecap:round;stroke-linejoin:round;stroke-miterlimit:4;stroke-opacity:1;stroke-dasharray:none"
       id="path3393"
       sodipodi:cx="8.739604"
       sodipodi:cy="5.6836634"
       sodipodi:rx="1.3514851"
       sodipodi:ry="1.3514851"
       d="m 10.091089,5.6836634 a 1.3514851,1.3514851 0 1 1 -2.7029701,0 1.3514851,1.3514851 0 1 1 2.7029701,0 z"
       transform="matrix(0.83926562,0,0,0.83926562,-3.3348492,-0.90435827)" />
    <path
       sodipodi:type="arc"
       style="fill:#204a87;fill-opacity:1;stroke:#000000;stroke-width:0.30000000999999998;stroke-linecap:round;stroke-linejoin:round;stroke-miterlimit:4;stroke-opacity:1;stroke-dasharray:none"
       id="path3397"
       sodipodi:cx="8.739604"
       sodipodi:cy="5.6836634"
       sodipodi:rx="1.3514851"
       sodipodi:ry="1.3514851"
       d="m 10.091089,5.6836634 a 1.3514851,1.3514851 0 1 1 -2.7029701,0 1.3514851,1.3514851 0 1 1 2.7029701,0 z"
       transform="matrix(0.83926562,0,0,0.83926562,-2.0248108,3.6782906)" />
    <g
       id="g3022"
       transform="translate(-15.45198,-4.7752476)">
      <g
         id="g3793"
         transform="translate(0.22524753,4.2346535)">
        <path
           style="fill:#204a87;fill-opacity:1;fill-rule:evenodd;stroke:#000000;stroke-width:0.23922813;stroke-linecap:butt;stroke-linejoin:miter;stroke-miterlimit:4;stroke-opacity:1;stroke-dasharray:none"
           d="m 2.2507404,2.054794 -0.099678,1.5948543 c 0,0 0.676409,0.041859 1.3705778,0.099678 0.3109497,0.0259 0.6073616,0.072656 0.8472663,0.099679 0.4221834,1.8620653 0.3529876,3.850441 2.3175224,6.4043377 1.1547561,1.501182 2.9415021,2.393519 4.4356861,2.965432 1.494187,0.571912 2.741157,0.822346 2.741157,0.822346 l 0.299034,-1.569934 c 0,0 -1.111804,-0.203942 -2.46704,-0.722669 C 10.340032,11.229791 8.7712202,10.371934 7.9324084,9.2814771 6.0778256,6.8705194 6.4711028,5.2999282 5.7893231,2.9269799 5.7890856,2.9261534 5.7301785,2.7369078 5.6896447,2.677784 5.6491108,2.6186602 5.6000664,2.5859375 5.5650467,2.553186 5.4950075,2.4876831 5.4322333,2.4517645 5.3906095,2.428588 5.307362,2.382235 5.2812551,2.3667623 5.241092,2.3538292 5.1607657,2.3279631 5.0988209,2.3148295 5.0417352,2.3039901 4.9275639,2.2823111 4.8106738,2.2712189 4.6679413,2.2541509 4.3824762,2.2200146 4.0278911,2.1841857 3.6711574,2.1544725 2.9576897,2.095046 2.2507404,2.054794 2.2507404,2.054794 z"
           id="path3334"
           inkscape:connector-curvature="0" />
      </g>
    </g>
    <path
       style="fill:none;stroke:#000000;stroke-width:0.89741725px;stroke-linecap:round;stroke-linejoin:miter;stroke-opacity:1"
       d="m -5.4447918,0.23237196 0,13.05031304"
       id="path3407"
       inkscape:connector-curvature="0" />
    <path
       transform="matrix(0.83926562,0,0,0.83926562,-0.38079831,5.861336)"
       d="m 10.091089,5.6836634 a 1.3514851,1.3514851 0 1 1 -2.7029701,0 1.3514851,1.3514851 0 1 1 2.7029701,0 z"
       sodipodi:ry="1.3514851"
       sodipodi:rx="1.3514851"
       sodipodi:cy="5.6836634"
       sodipodi:cx="8.739604"
       id="path5290"
       style="fill:#204a87;fill-opacity:1;stroke:#000000;stroke-width:0.30000001;stroke-linecap:round;stroke-linejoin:round;stroke-miterlimit:4;stroke-opacity:1;stroke-dasharray:none"
       sodipodi:type="arc" />
    <path
       sodipodi:type="arc"
       style="fill:#204a87;fill-opacity:1;stroke:#000000;stroke-width:0.30000001;stroke-linecap:round;stroke-linejoin:round;stroke-miterlimit:4;stroke-opacity:1;stroke-dasharray:none"
       id="path5292"
       sodipodi:cx="8.739604"
       sodipodi:cy="5.6836634"
       sodipodi:rx="1.3514851"
       sodipodi:ry="1.3514851"
       d="m 10.091089,5.6836634 a 1.3514851,1.3514851 0 1 1 -2.7029701,0 1.3514851,1.3514851 0 1 1 2.7029701,0 z"
       transform="matrix(0.83926562,0,0,0.83926562,2.0969245,5.1405439)" />
    <path
       transform="matrix(0.83926562,0,0,0.83926562,5.971182,2.7078706)"
       d="m 10.091089,5.6836634 a 1.3514851,1.3514851 0 1 1 -2.7029701,0 1.3514851,1.3514851 0 1 1 2.7029701,0 z"
       sodipodi:ry="1.3514851"
       sodipodi:rx="1.3514851"
       sodipodi:cy="5.6836634"
       sodipodi:cx="8.739604"
       id="path5294"
       style="fill:#204a87;fill-opacity:1;stroke:#000000;stroke-width:0.30000001;stroke-linecap:round;stroke-linejoin:round;stroke-miterlimit:4;stroke-opacity:1;stroke-dasharray:none"
       sodipodi:type="arc" />
    <path
       sodipodi:type="arc"
       style="fill:#204a87;fill-opacity:1;stroke:#000000;stroke-width:0.30000001;stroke-linecap:round;stroke-linejoin:round;stroke-miterlimit:4;stroke-opacity:1;stroke-dasharray:none"
       id="path5296"
       sodipodi:cx="8.739604"
       sodipodi:cy="5.6836634"
       sodipodi:rx="1.3514851"
       sodipodi:ry="1.3514851"
       d="m 10.091089,5.6836634 a 1.3514851,1.3514851 0 1 1 -2.7029701,0 1.3514851,1.3514851 0 1 1 2.7029701,0 z"
       transform="matrix(0.83926562,0,0,0.83926562,2.2771226,4.0143063)" />
    <path
       transform="matrix(0.83926562,0,0,0.83926562,0.88058795,7.7083657)"
       d="m 10.091089,5.6836634 a 1.3514851,1.3514851 0 1 1 -2.7029701,0 1.3514851,1.3514851 0 1 1 2.7029701,0 z"
       sodipodi:ry="1.3514851"
       sodipodi:rx="1.3514851"
       sodipodi:cy="5.6836634"
       sodipodi:cx="8.739604"
       id="path5298"
       style="fill:#204a87;fill-opacity:1;stroke:#000000;stroke-width:0.30000001;stroke-linecap:round;stroke-linejoin:round;stroke-miterlimit:4;stroke-opacity:1;stroke-dasharray:none"
       sodipodi:type="arc" />
    <path
       transform="matrix(0.83926562,0,0,0.83926562,-0.11050118,4.5098509)"
       d="m 10.091089,5.6836634 a 1.3514851,1.3514851 0 1 1 -2.7029701,0 1.3514851,1.3514851 0 1 1 2.7029701,0 z"
       sodipodi:ry="1.3514851"
       sodipodi:rx="1.3514851"
       sodipodi:cy="5.6836634"
       sodipodi:cx="8.739604"
       id="path5300"
       style="fill:#204a87;fill-opacity:1;stroke:#000000;stroke-width:0.30000001;stroke-linecap:round;stroke-linejoin:round;stroke-miterlimit:4;stroke-opacity:1;stroke-dasharray:none"
       sodipodi:type="arc" />
    <path
       sodipodi:type="arc"
       style="fill:#204a87;fill-opacity:1;stroke:#000000;stroke-width:0.30000001;stroke-linecap:round;stroke-linejoin:round;stroke-miterlimit:4;stroke-opacity:1;stroke-dasharray:none"
       id="path5302"
       sodipodi:cx="8.739604"
       sodipodi:cy="5.6836634"
       sodipodi:rx="1.3514851"
       sodipodi:ry="1.3514851"
       d="m 10.091089,5.6836634 a 1.3514851,1.3514851 0 1 1 -2.7029701,0 1.3514851,1.3514851 0 1 1 2.7029701,0 z"
       transform="matrix(0.83926562,0,0,0.83926562,-2.408026,1.9870786)" />
    <path
       transform="matrix(0.83926562,0,0,0.83926562,0.61029086,-0.17529766)"
       d="m 10.091089,5.6836634 a 1.3514851,1.3514851 0 1 1 -2.7029701,0 1.3514851,1.3514851 0 1 1 2.7029701,0 z"
       sodipodi:ry="1.3514851"
       sodipodi:rx="1.3514851"
       sodipodi:cy="5.6836634"
       sodipodi:cx="8.739604"
       id="path5304"
       style="fill:#204a87;fill-opacity:1;stroke:#000000;stroke-width:0.30000001;stroke-linecap:round;stroke-linejoin:round;stroke-miterlimit:4;stroke-opacity:1;stroke-dasharray:none"
       sodipodi:type="arc" />
    <path
       sodipodi:type="arc"
       style="fill:#204a87;fill-opacity:1;stroke:#000000;stroke-width:0.30000001;stroke-linecap:round;stroke-linejoin:round;stroke-miterlimit:4;stroke-opacity:1;stroke-dasharray:none"
       id="path5306"
       sodipodi:cx="8.739604"
       sodipodi:cy="5.6836634"
       sodipodi:rx="1.3514851"
       sodipodi:ry="1.3514851"
       d="m 10.091089,5.6836634 a 1.3514851,1.3514851 0 1 1 -2.7029701,0 1.3514851,1.3514851 0 1 1 2.7029701,0 z"
       transform="matrix(0.83926562,0,0,0.83926562,3.0880137,-0.22034717)" />
    <path
       transform="matrix(0.83926562,0,0,0.83926562,5.0701919,-1.9322284)"
       d="m 10.091089,5.6836634 a 1.3514851,1.3514851 0 1 1 -2.7029701,0 1.3514851,1.3514851 0 1 1 2.7029701,0 z"
       sodipodi:ry="1.3514851"
       sodipodi:rx="1.3514851"
       sodipodi:cy="5.6836634"
       sodipodi:cx="8.739604"
       id="path5308"
       style="fill:#204a87;fill-opacity:1;stroke:#000000;stroke-width:0.30000001;stroke-linecap:round;stroke-linejoin:round;stroke-miterlimit:4;stroke-opacity:1;stroke-dasharray:none"
       sodipodi:type="arc" />
    <path
       sodipodi:type="arc"
       style="fill:#204a87;fill-opacity:1;stroke:#000000;stroke-width:0.30000001;stroke-linecap:round;stroke-linejoin:round;stroke-miterlimit:4;stroke-opacity:1;stroke-dasharray:none"
       id="path5310"
       sodipodi:cx="8.739604"
       sodipodi:cy="5.6836634"
       sodipodi:rx="1.3514851"
       sodipodi:ry="1.3514851"
       d="m 10.091089,5.6836634 a 1.3514851,1.3514851 0 1 1 -2.7029701,0 1.3514851,1.3514851 0 1 1 2.7029701,0 z"
       transform="matrix(0.83926562,0,0,0.83926562,0.56524136,-2.607971)" />
    <path
       transform="matrix(0.83926562,0,0,0.83926562,0.8805879,2.2573756)"
       d="m 10.091089,5.6836634 a 1.3514851,1.3514851 0 1 1 -2.7029701,0 1.3514851,1.3514851 0 1 1 2.7029701,0 z"
       sodipodi:ry="1.3514851"
       sodipodi:rx="1.3514851"
       sodipodi:cy="5.6836634"
       sodipodi:cx="8.739604"
       id="path5312"
       style="fill:#204a87;fill-opacity:1;stroke:#000000;stroke-width:0.30000001;stroke-linecap:round;stroke-linejoin:round;stroke-miterlimit:4;stroke-opacity:1;stroke-dasharray:none"
       sodipodi:type="arc" />
    <path
       sodipodi:type="arc"
       style="fill:#204a87;fill-opacity:1;stroke:#000000;stroke-width:0.30000001;stroke-linecap:round;stroke-linejoin:round;stroke-miterlimit:4;stroke-opacity:1;stroke-dasharray:none"
       id="path5314"
       sodipodi:cx="8.739604"
       sodipodi:cy="5.6836634"
       sodipodi:rx="1.3514851"
       sodipodi:ry="1.3514851"
       d="m 10.091089,5.6836634 a 1.3514851,1.3514851 0 1 1 -2.7029701,0 1.3514851,1.3514851 0 1 1 2.7029701,0 z"
       transform="matrix(0.83926562,0,0,0.83926562,2.9528651,7.4831182)" />
    <path
       transform="matrix(0.83926562,0,0,0.83926562,-1.2367389,7.1227222)"
       d="m 10.091089,5.6836634 a 1.3514851,1.3514851 0 1 1 -2.7029701,0 1.3514851,1.3514851 0 1 1 2.7029701,0 z"
       sodipodi:ry="1.3514851"
       sodipodi:rx="1.3514851"
       sodipodi:cy="5.6836634"
       sodipodi:cx="8.739604"
       id="path5316"
       style="fill:#204a87;fill-opacity:1;stroke:#000000;stroke-width:0.30000001;stroke-linecap:round;stroke-linejoin:round;stroke-miterlimit:4;stroke-opacity:1;stroke-dasharray:none"
       sodipodi:type="arc" />
    <path
       style="fill:none;stroke:#a40000;stroke-width:1;stroke-linecap:round;stroke-linejoin:miter;stroke-miterlimit:4;stroke-opacity:1;stroke-dasharray:none"
       d="m 14.191821,9.3633788 -12.5638403,0"
       id="path3409"
       inkscape:connector-curvature="0" />
    <text
       xml:space="preserve"
       style="font-size:13px;font-style:normal;font-weight:normal;line-height:125%;letter-spacing:0px;word-spacing:0px;fill:#73d216;fill-opacity:1;stroke:none;font-family:Sans"
       x="0"
       y="11"
       id="text5318"
       sodipodi:linespacing="125%"><tspan
         sodipodi:role="line"
         id="tspan5320"
         x="0"
         y="11"
         style="font-size:13px;font-weight:bold;fill:#73d216;stroke:#000000;stroke-width:0.5;stroke-miterlimit:4;stroke-opacity:1;stroke-dasharray:none;-inkscape-font-specification:Sans Bold">P</tspan></text>
    <path
       transform="matrix(1.3320145,0,0,1.3320145,-3.6412792,5.6290802)"
       d="m 10.091089,5.6836634 a 1.3514851,1.3514851 0 1 1 -2.7029701,0 1.3514851,1.3514851 0 1 1 2.7029701,0 z"
       sodipodi:ry="1.3514851"
       sodipodi:rx="1.3514851"
       sodipodi:cy="5.6836634"
       sodipodi:cx="8.739604"
       id="path3399"
       style="fill:#a40000;fill-opacity:1;stroke:#000000;stroke-width:0.30000001;stroke-linecap:round;stroke-linejoin:round;stroke-miterlimit:4;stroke-opacity:1;stroke-dasharray:none"
       sodipodi:type="arc" />
  </g>
</svg>
