<?xml version="1.0" encoding="UTF-8" standalone="no"?>
<!-- Created with Inkscape (http://www.inkscape.org/) -->

<svg
   xmlns:dc="http://purl.org/dc/elements/1.1/"
   xmlns:cc="http://creativecommons.org/ns#"
   xmlns:rdf="http://www.w3.org/1999/02/22-rdf-syntax-ns#"
   xmlns:svg="http://www.w3.org/2000/svg"
   xmlns="http://www.w3.org/2000/svg"
   xmlns:sodipodi="http://sodipodi.sourceforge.net/DTD/sodipodi-0.dtd"
   xmlns:inkscape="http://www.inkscape.org/namespaces/inkscape"
   width="16px"
   height="16px"
   id="svg2160"
   sodipodi:version="0.32"
   inkscape:version="0.48.2 r9819"
   sodipodi:docname="plotting.svg"
   inkscape:output_extension="org.inkscape.output.svg.inkscape"
   inkscape:export-filename="/Users/GenX/Documents/GenX/sf-code/trunk/icons/main_gui/plotting.png"
   inkscape:export-xdpi="112.5"
   inkscape:export-ydpi="112.5"
   version="1.1">
  <defs
     id="defs2162">
    <linearGradient
       id="linearGradient3413">
      <stop
         style="stop-color:#d3d7cf;stop-opacity:1;"
         offset="0"
         id="stop3415" />
      <stop
         style="stop-color:#d3d7cf;stop-opacity:0;"
         offset="1"
         id="stop3417" />
    </linearGradient>
  </defs>
  <sodipodi:namedview
     id="base"
     pagecolor="#ffffff"
     bordercolor="#666666"
     borderopacity="1.0"
     inkscape:pageopacity="0.0"
     inkscape:pageshadow="2"
     inkscape:zoom="22.197802"
     inkscape:cx="9.3726801"
     inkscape:cy="7.86027"
     inkscape:current-layer="layer1"
     showgrid="true"
     inkscape:grid-bbox="true"
     inkscape:document-units="px"
     inkscape:window-width="910"
     inkscape:window-height="627"
     inkscape:window-x="221"
     inkscape:window-y="68"
     inkscape:window-maximized="0" />
  <metadata
     id="metadata2165">
    <rdf:RDF>
      <cc:Work
         rdf:about="">
        <dc:format>image/svg+xml</dc:format>
        <dc:type
           rdf:resource="http://purl.org/dc/dcmitype/StillImage" />
        <dc:title></dc:title>
      </cc:Work>
    </rdf:RDF>
  </metadata>
  <g
     inkscape:groupmode="layer"
     id="layer2"
     inkscape:label="Layer2" />
  <g
     id="layer1"
     inkscape:label="Layer 1"
     inkscape:groupmode="layer">
    <g
       id="g2994"
       transform="translate(0.72432143,-0.6003238)">
      <path
         transform="matrix(0.83926562,0,0,0.83926562,3.6250784,9.5700757)"
         d="m 10.091089,5.6836634 c 0,0.7464046 -0.6050804,1.3514851 -1.351485,1.3514851 -0.7464046,0 -1.3514851,-0.6050805 -1.3514851,-1.3514851 0,-0.7464047 0.6050805,-1.3514852 1.3514851,-1.3514852 0.7464046,0 1.351485,0.6050805 1.351485,1.3514852 z"
         sodipodi:ry="1.3514851"
         sodipodi:rx="1.3514851"
         sodipodi:cy="5.6836634"
         sodipodi:cx="8.739604"
         id="path3401"
         style="fill:#a40000;fill-opacity:1;stroke:#000000;stroke-width:0.30000001;stroke-linecap:round;stroke-linejoin:round;stroke-miterlimit:4;stroke-opacity:1;stroke-dasharray:none"
         sodipodi:type="arc" />
      <path
         sodipodi:type="arc"
         style="fill:#990000;fill-opacity:1;stroke:#000000;stroke-width:0.30000001;stroke-linecap:round;stroke-linejoin:round;stroke-miterlimit:4;stroke-opacity:1;stroke-dasharray:none"
         id="path3395"
         sodipodi:cx="8.739604"
         sodipodi:cy="5.6836634"
         sodipodi:rx="1.3514851"
         sodipodi:ry="1.3514851"
         d="m 10.091089,5.6836634 c 0,0.7464046 -0.6050804,1.3514851 -1.351485,1.3514851 -0.7464046,0 -1.3514851,-0.6050805 -1.3514851,-1.3514851 0,-0.7464047 0.6050805,-1.3514852 1.3514851,-1.3514852 0.7464046,0 1.351485,0.6050805 1.351485,1.3514852 z"
         transform="matrix(0.83926562,0,0,0.83926562,-1.1194265,0.05716202)" />
      <path
         transform="matrix(0.83926562,0,0,0.83926562,-4.7700708,-0.49861908)"
         d="m 10.091089,5.6836634 c 0,0.7464046 -0.6050804,1.3514851 -1.351485,1.3514851 -0.7464046,0 -1.3514851,-0.6050805 -1.3514851,-1.3514851 0,-0.7464047 0.6050805,-1.3514852 1.3514851,-1.3514852 0.7464046,0 1.351485,0.6050805 1.351485,1.3514852 z"
         sodipodi:ry="1.3514851"
         sodipodi:rx="1.3514851"
         sodipodi:cy="5.6836634"
         sodipodi:cx="8.739604"
         id="path3393"
         style="fill:#a40000;fill-opacity:1;stroke:#000000;stroke-width:0.30000001;stroke-linecap:round;stroke-linejoin:round;stroke-miterlimit:4;stroke-opacity:1;stroke-dasharray:none"
         sodipodi:type="arc" />
      <path
         transform="matrix(0.83926562,0,0,0.83926562,-3.1545777,5.2697035)"
         d="m 10.091089,5.6836634 c 0,0.7464046 -0.6050804,1.3514851 -1.351485,1.3514851 -0.7464046,0 -1.3514851,-0.6050805 -1.3514851,-1.3514851 0,-0.7464047 0.6050805,-1.3514852 1.3514851,-1.3514852 0.7464046,0 1.351485,0.6050805 1.351485,1.3514852 z"
         sodipodi:ry="1.3514851"
         sodipodi:rx="1.3514851"
         sodipodi:cy="5.6836634"
         sodipodi:cx="8.739604"
         id="path3397"
         style="fill:#a40000;fill-opacity:1;stroke:#000000;stroke-width:0.30000001;stroke-linecap:round;stroke-linejoin:round;stroke-miterlimit:4;stroke-opacity:1;stroke-dasharray:none"
         sodipodi:type="arc" />
      <path
         sodipodi:type="arc"
         style="fill:#a40000;fill-opacity:1;stroke:#000000;stroke-width:0.30000001;stroke-linecap:round;stroke-linejoin:round;stroke-miterlimit:4;stroke-opacity:1;stroke-dasharray:none"
         id="path3399"
         sodipodi:cx="8.739604"
         sodipodi:cy="5.6836634"
         sodipodi:rx="1.3514851"
         sodipodi:ry="1.3514851"
         d="m 10.091089,5.6836634 c 0,0.7464046 -0.6050804,1.3514851 -1.351485,1.3514851 -0.7464046,0 -1.3514851,-0.6050805 -1.3514851,-1.3514851 0,-0.7464047 0.6050805,-1.3514852 1.3514851,-1.3514852 0.7464046,0 1.351485,0.6050805 1.351485,1.3514852 z"
         transform="matrix(0.83926562,0,0,0.83926562,1.1605465,6.3390829)" />
      <path
         inkscape:connector-curvature="0"
         id="path3334"
         d="M 1.526419,2.6551178 1.426741,4.2499721 c 0,0 0.676409,0.041859 1.3705778,0.099678 0.3109497,0.0259 0.6073616,0.072656 0.8472663,0.099679 0.4221834,1.8620653 0.3529876,3.850441 2.3175224,6.4043379 1.1547561,1.501182 2.9415021,2.393519 4.4356865,2.965432 1.494187,0.571912 2.741157,0.822346 2.741157,0.822346 l 0.299034,-1.569934 c 0,0 -1.111804,-0.203942 -2.46704,-0.722669 C 9.6157103,11.830115 8.0468988,10.972258 7.208087,9.8818009 5.3535042,7.4708432 5.7467814,5.900252 5.0650017,3.5273037 5.0647642,3.5264772 5.0058571,3.3372316 4.9653233,3.2781078 4.9247894,3.218984 4.875745,3.1862613 4.8407253,3.1535098 4.7706861,3.0880069 4.7079119,3.0520883 4.6662881,3.0289118 4.5830406,2.9825588 4.5569337,2.9670861 4.5167706,2.954153 4.4364443,2.9282869 4.3744995,2.9151533 4.3174138,2.9043139 4.2032425,2.8826349 4.0863524,2.8715427 3.9436199,2.8544747 3.6581548,2.8203384 3.3035697,2.7845095 2.946836,2.7547963 2.2333683,2.6953698 1.526419,2.6551178 1.526419,2.6551178 z"
         style="fill:#204a87;fill-opacity:1;fill-rule:evenodd;stroke:#000000;stroke-width:0.23922813;stroke-linecap:butt;stroke-linejoin:miter;stroke-miterlimit:4;stroke-opacity:1;stroke-dasharray:none" />
      <path
         inkscape:connector-curvature="0"
         id="path3407"
         d="m 0.99375814,2.0490324 0,13.0503136"
         style="fill:none;stroke:#000000;stroke-width:0.89741725px;stroke-linecap:round;stroke-linejoin:miter;stroke-opacity:1" />
      <path
         inkscape:connector-curvature="0"
         id="path3409"
         d="m 13.557599,15.099346 -12.56384086,0"
         style="fill:none;stroke:#000000;stroke-width:0.89741725px;stroke-linecap:round;stroke-linejoin:miter;stroke-opacity:1" />
    </g>
  </g>
</svg>
